<svg xmlns="http://www.w3.org/2000/svg" xmlns:xlink="http://www.w3.org/1999/xlink" width="1440" height="418" viewBox="0 0 1440 418">
  <defs>
    <clipPath id="clip-path">
      <rect width="40.705" height="44.47" fill="none"/>
    </clipPath>
  </defs>
  <g id="Groupe_67" data-name="Groupe 67" transform="translate(0 -1934.035)">
    <g id="Immigration" transform="translate(456.127 2123.78)">
      <g id="Groupe_49" data-name="Groupe 49" transform="translate(0 40.876)">
        <path id="Combined_Shape" data-name="Combined Shape" d="M37.3,107.191A30.712,30.712,0,0,1,10.038,67.649,30.7,30.7,0,0,1,39.382,15.514,62.069,62.069,0,0,1,103.47,4.887a43.088,43.088,0,0,1,52.01,66.976,30.712,30.712,0,0,1-36.155,38.4A61.994,61.994,0,0,1,37.3,107.191Z" transform="translate(0 0)" fill="#fff" opacity="0.5"/>
        <path id="Path" d="M9.667,5.22H5.414V.387a.387.387,0,1,0-.773,0V5.22H.387a.387.387,0,0,0,0,.773H4.64v4.833a.387.387,0,1,0,.773,0V5.994H9.667a.387.387,0,0,0,0-.773Z" transform="translate(144.323 78.07)" fill="#fff"/>
      </g>
      <g id="Groupe_69" data-name="Groupe 69">
        <g id="Groupe_68" data-name="Groupe 68">
          <g id="Groupe_54" data-name="Groupe 54" transform="translate(64.949 14.366)">
            <g id="Rectangle_17" data-name="Rectangle 17" transform="translate(0 1.857)" fill="#fff" stroke="#e6e6e6" stroke-width="2">
              <rect width="66.113" height="90.565" rx="10" stroke="none"/>
              <rect x="1" y="1" width="64.113" height="88.565" rx="9" fill="none"/>
            </g>
            <path id="Path-2" data-name="Path" d="M38,5.527H2.709C-.9,5.509-.911.019,2.709,0H38C41.6.017,41.617,5.508,38,5.527Z" transform="translate(12.704)" fill="#ccc" stroke="#fff" stroke-width="2"/>
            <path id="Path-3" data-name="Path" d="M38,5.527H2.709C-.9,5.509-.911.019,2.709,0H38C41.6.017,41.617,5.508,38,5.527Z" transform="translate(12.704 49.404)" fill="#ccc"/>
            <path id="Path-4" data-name="Path" d="M38,5.527H2.709C-.9,5.509-.911.019,2.709,0H38C41.6.017,41.617,5.508,38,5.527Z" transform="translate(12.704 61.178)" fill="#ccc"/>
            <path id="Path-5" data-name="Path" d="M38,5.527H2.709C-.9,5.509-.911.019,2.709,0H38C41.6.017,41.617,5.508,38,5.527Z" transform="translate(12.704 72.951)" fill="#ccc"/>
            <g id="Groupe_56" data-name="Groupe 56" transform="translate(12.704 18.466)">
              <path id="Path-6" data-name="Path" d="M12.346,24.692A12.346,12.346,0,1,0,0,12.346,12.346,12.346,0,0,0,12.346,24.692Z" transform="translate(0)" fill="#ffcf2f"/>
              <path id="Icon_awesome-check" data-name="Icon awesome-check" d="M5.17,15.706.223,10.759a.761.761,0,0,1,0-1.076L1.3,8.606a.761.761,0,0,1,1.076,0l3.333,3.333L12.847,4.8a.761.761,0,0,1,1.076,0L15,5.877a.761.761,0,0,1,0,1.076L6.247,15.706A.761.761,0,0,1,5.17,15.706Z" transform="translate(4.735 2.304)" fill="#fff"/>
            </g>
          </g>
          <g id="Groupe_57" data-name="Groupe 57" transform="translate(19.353)">
            <g id="Groupe_57-2" data-name="Groupe 57" transform="translate(37.905 101.534)">
              <path id="Path-7" data-name="Path" d="M0,20.939H5.43L8.011,0H0L0,20.939Z" transform="translate(0 1.665) rotate(-12)" fill="#a0616a"/>
              <path id="Path-8" data-name="Path" d="M10.469,0H0V6.592H17.061A6.592,6.592,0,0,0,10.469,0Z" transform="translate(1.834 19.992)" fill="#2f2e41"/>
            </g>
            <path id="Path-9" data-name="Path" d="M14.134.026A3.773,3.773,0,0,0,11.4,1.7,3.848,3.848,0,0,0,10.925,4.9L0,12.782l6.512,2.531,9.376-7.875A3.844,3.844,0,0,0,18.27,2.945,3.8,3.8,0,0,0,14.134.026Z" transform="translate(32.156 13.781)" fill="#a0616a"/>
            <path id="Path-10" data-name="Path" d="M40.954,5.534l-13.133,12.9A11,11,0,0,1,21.113,21.5L4.884,22.949a4.545,4.545,0,0,1-3.32-1.018A4.205,4.205,0,0,1,.133,17.616a4.324,4.324,0,0,1,3.359-3.133l16.579-3.446L35.166.173a1.41,1.41,0,0,1,1.373.01l4.1,3.283a1.307,1.307,0,0,1,.68,1.382A1.277,1.277,0,0,1,40.954,5.534Z" transform="translate(4.592 19.906)" fill="#2f2e41"/>
            <path id="Path-11" data-name="Path" d="M15.161,10.8a3.5,3.5,0,0,0-1.975-2.212A3.566,3.566,0,0,0,10.2,8.66L1.237,0,0,6.321l8.7,7.255a3.568,3.568,0,0,0,4.479,1.445A3.493,3.493,0,0,0,15.161,10.8Z" transform="translate(32.156 55.125)" fill="#a0616a"/>
            <circle id="Oval" cx="9.159" cy="9.159" r="9.159" transform="translate(2.133 1.658)" fill="#a0616a"/>
            <path id="Path-12" data-name="Path" d="M8.283,19.9c.489.208,1.49-3.576,1.042-4.332C8.658,14.44,8.7,14.448,8.254,13.7a2.107,2.107,0,0,1,.032-2.419c.574-.655,1.9-.568,2.162.253-.168-1.56,1.421-2.814,3-3.167s3.235-.134,4.818-.447C20.1,7.56,22.01,6.065,21.277,4.1a2.749,2.749,0,0,0-.555-.886,7.081,7.081,0,0,0-3.19-1.7A21.671,21.671,0,0,0,10.1.007,10.767,10.767,0,0,0,.568,6.778,9.3,9.3,0,0,0,.162,8.242,9.779,9.779,0,0,0,6.442,19.029Z" transform="translate(1.062 0)" fill="#2f2e41"/>
            <path id="Path-13" data-name="Path" d="M8.869,48.421a1.392,1.392,0,0,1-.635-1.365L4.272,26.9.256,11.426h0A7.817,7.817,0,0,1,4.027,2.58L6.682,0l5.791,2.563,2.752,2.874a16.06,16.06,0,0,1,8.219,10.01l4.414,15.515L38.051,46.541a1.414,1.414,0,0,1-.132,1.718C36.5,49.826,8.869,48.421,8.869,48.421Z" transform="translate(0 19.906)" fill="#2f2e41"/>
            <path id="Path-14" data-name="Path" d="M24.333,38.041,8.841,27.426a10.894,10.894,0,0,1-4.32-6.055L.166,5.649A4.445,4.445,0,0,1,8.556,2.756l6.458,15.708,13.76,12.913a1.369,1.369,0,0,1,.233,1.354l-2.621,4.633a1.363,1.363,0,0,1-1.289.918,1.343,1.343,0,0,1-.766-.24Z" transform="translate(12.249 29.093)" fill="#2f2e41"/>
            <g id="Groupe_58" data-name="Groupe 58" transform="translate(4.419 101.458)">
              <path id="Path-15" data-name="Path" d="M0,20.939H5.43L8.011,0H0L0,20.939Z" transform="translate(5.818 0) rotate(15)" fill="#a0616a"/>
              <path id="Path-16" data-name="Path" d="M10.469,0H0V6.592H17.061A6.592,6.592,0,0,0,10.469,0Z" transform="translate(0 20.068)" fill="#2f2e41"/>
            </g>
            <path id="Path-17" data-name="Path" d="M.249,54.539a1.377,1.377,0,0,1-.165-1.262L7.275,27.208,7.807,1.664,32.015.008,32.133,0l7.291,13.178a33.836,33.836,0,0,1,4.1,13.357l2.4,26.257a1.371,1.371,0,0,1-1.2,1.5l-7.3.692a1.358,1.358,0,0,1-1.508-1.147L32.957,27.154,22.292,9.185,18.713,28.1,11.3,54.227a1.375,1.375,0,0,1-1.278.894l-8.65,0a1.346,1.346,0,0,1-1.118-.586Z" transform="translate(3.062 65.844)" fill="#2f2e41"/>
          </g>
        </g>
        <g id="steps" transform="translate(107.213 65.514)">
          <g id="Oval-2" data-name="Oval" fill="#fff" stroke="#ffd019" stroke-miterlimit="10" stroke-width="1">
            <circle cx="28.385" cy="28.385" r="28.385" stroke="none"/>
            <circle cx="28.385" cy="28.385" r="27.885" fill="none"/>
          </g>
          <text id="_01" data-name="01" transform="translate(27.597 35.725)" font-size="24" font-family="Poppins-Bold, Poppins" font-weight="700"><tspan x="-14.676" y="0">02</tspan></text>
        </g>
      </g>
    </g>
    <g id="Groupe_66" data-name="Groupe 66">
      <g id="Groupe_65" data-name="Groupe 65" transform="translate(-32.479 294.151)">
        <g id="arrow3" transform="matrix(0.616, -0.788, 0.788, 0.616, 308.705, 1865.663)">
          <path id="Triangle" d="M7.346,8.663a.932.932,0,0,0,1.318,0l7.072-7.072A.932.932,0,0,0,15.077,0H.934A.932.932,0,0,0,.275,1.591Z" transform="translate(81.423 138.811)" fill="#777"/>
          <path id="Path_2" data-name="Path 2" d="M0,0S79.172,13.6,89.792,137.2" transform="translate(0 0)" fill="none" stroke="#777" stroke-linecap="round" stroke-linejoin="round" stroke-miterlimit="10" stroke-width="2" stroke-dasharray="1 6"/>
        </g>
        <g id="arrow3-2" data-name="arrow3" transform="matrix(0.906, -0.423, 0.423, 0.906, 573.944, 1872.166)">
          <path id="Triangle-2" data-name="Triangle" d="M6.119,7.215a.776.776,0,0,0,1.1,0l5.89-5.89A.776.776,0,0,0,12.558,0H.778A.776.776,0,0,0,.229,1.325Z" transform="translate(260.587 125.13) rotate(-31)" fill="#777"/>
          <path id="Path_2-2" data-name="Path 2" d="M0,0S172.094,9.836,195.179,99.223" transform="translate(73.112 25.51)" fill="none" stroke="#777" stroke-linecap="round" stroke-linejoin="round" stroke-miterlimit="10" stroke-width="2" stroke-dasharray="1 6"/>
        </g>
        <g id="Creer-son-compte" transform="translate(130.736 1769.266)">
          <g id="Groupe_49-2" data-name="Groupe 49">
            <path id="Combined_Shape-2" data-name="Combined Shape" d="M37.3,107.191A30.712,30.712,0,0,1,10.038,67.649,30.7,30.7,0,0,1,39.382,15.514,62.069,62.069,0,0,1,103.47,4.887a43.088,43.088,0,0,1,52.01,66.976,30.712,30.712,0,0,1-36.155,38.4A61.994,61.994,0,0,1,37.3,107.191Z" transform="translate(0 28.275)" fill="#fff" opacity="0.5"/>
            <g id="Groupe_46" data-name="Groupe 46" transform="translate(8.657 59.583)">
              <path id="Tracé_87" data-name="Tracé 87" d="M212.418,510.107c-2.761-13.351-6.213-17.8-6.213-17.8l-1.319-1.023-1.586-1.232.008-.158-.376-.128-.088-.069-.145-.111-.023.025-.049.051-7.175-2.439-9.1-3.092-4.215-5.479a7.291,7.291,0,0,0-5.833-2.845l-13.462.1a7.291,7.291,0,0,0-4.9,1.945l-8.849,8.208L135.3,492.643l-.023-.023-.145.1L133,493.742l.088.458-1.319.951s-3.451,4.142-6.213,16.564c-.7,3.161-1.048,9.942-1.173,18.3a3.189,3.189,0,0,0,3.188,3.237h82.835a3.19,3.19,0,0,0,3.188-3.233C213.472,520.924,213.127,513.535,212.418,510.107Z" transform="translate(-124.383 -430.339)" fill="#3f3d56"/>
              <circle id="ab6171fa-7d69-4734-b81c-8dff60f9761b" cx="17.637" cy="17.637" r="17.637" transform="translate(29.664 5.135)" fill="#9e616a"/>
              <path id="Tracé_90" data-name="Tracé 90" d="M339.062,443.956q-.113-.249-.225-.5c.029,0,.057.005.086.006Z" transform="translate(-296.273 -404.411)" fill="#2f2e41"/>
              <path id="Tracé_92" data-name="Tracé 92" d="M87.464,495.253l4.947,26.915,2.968.258Z" transform="translate(-70.105 -419.516)" opacity="0.2"/>
              <path id="Tracé_93" data-name="Tracé 93" d="M330.043,485.026,325.1,513.951l-2.968.278Z" transform="translate(-258.194 -411.319)" opacity="0.2"/>
              <path id="Path-18" data-name="Path" d="M2.814,40.392c.993.422,3.026-7.258,2.115-8.795-1.354-2.284-1.274-2.268-2.173-3.779a4.277,4.277,0,0,1,.064-4.91c1.164-1.33,3.858-1.153,4.39.514-.342-3.167,2.884-5.713,6.08-6.428s6.567-.271,9.78-.908c3.729-.739,7.609-3.774,6.121-7.756a5.581,5.581,0,0,0-1.127-1.8C26.345,4.656,23.94,3.854,21.589,3.08,16.7,1.468,11.673-.165,6.51.013A21.856,21.856,0,0,0-12.846,13.758a18.875,18.875,0,0,0-.824,2.973c-1.772,9.25,3.761,18.375,12.746,21.9Z" transform="translate(39.273 0)" fill="#2f2e41"/>
            </g>
            <path id="Path-19" data-name="Path" d="M10.054,20.107A10.054,10.054,0,1,1,20.107,10.054,10.054,10.054,0,0,1,10.054,20.107Z" transform="translate(139.296 101.898)" fill="#ccc"/>
            <path id="Path-20" data-name="Path" d="M9.667,5.22H5.414V.387a.387.387,0,1,0-.773,0V5.22H.387a.387.387,0,0,0,0,.773H4.64v4.833a.387.387,0,1,0,.773,0V5.994H9.667a.387.387,0,0,0,0-.773Z" transform="translate(144.323 106.345)" fill="#fff"/>
            <g id="Groupe_53" data-name="Groupe 53" transform="translate(100.766)">
              <g id="Rectangle_17-2" data-name="Rectangle 17" transform="translate(0.497 0.396)" fill="#fff" stroke="#e6e6e6" stroke-width="2">
                <rect width="66" height="90" rx="10" stroke="none"/>
                <rect x="1" y="1" width="64" height="88" rx="9" fill="none"/>
              </g>
              <g id="Grille_de_répétition_1" data-name="Grille de répétition 1" transform="translate(12.704 28.528)" clip-path="url(#clip-path)">
                <g transform="translate(16289.324 11416.523)">
                  <path id="Path-21" data-name="Path" d="M41.954,6.1H2.991c-3.98-.019-4-6.082,0-6.1H41.954C45.931.019,45.953,6.082,41.954,6.1Z" transform="translate(-16289.324 -11416.523)" fill="#ccc"/>
                </g>
                <g transform="translate(16289.324 11429.523)">
                  <path id="Path-22" data-name="Path" d="M41.954,6.1H2.991c-3.98-.019-4-6.082,0-6.1H41.954C45.931.019,45.953,6.082,41.954,6.1Z" transform="translate(-16289.324 -11416.523)" fill="#ccc"/>
                </g>
                <g transform="translate(16289.324 11442.523)">
                  <path id="Path-23" data-name="Path" d="M41.954,6.1H2.991c-3.98-.019-4-6.082,0-6.1H41.954C45.931.019,45.953,6.082,41.954,6.1Z" transform="translate(-16289.324 -11416.523)" fill="#ccc"/>
                </g>
                <g transform="translate(16289.324 11455.523)">
                  <path id="Path-24" data-name="Path" d="M41.954,6.1H2.991c-3.98-.019-4-6.082,0-6.1H41.954C45.931.019,45.953,6.082,41.954,6.1Z" transform="translate(-16289.324 -11416.523)" fill="#ccc"/>
                </g>
              </g>
              <rect id="Rectangle_18" data-name="Rectangle 18" width="16" height="16" rx="5" transform="translate(25.497 7.396)" fill="#ffcf2f"/>
            </g>
            <g id="steps-2" data-name="steps" transform="translate(111.782 124.452)">
              <g id="Oval-3" data-name="Oval" fill="#fff" stroke="#ffd019" stroke-miterlimit="10" stroke-width="1">
                <circle cx="28.385" cy="28.385" r="28.385" stroke="none"/>
                <circle cx="28.385" cy="28.385" r="27.885" fill="none"/>
              </g>
              <text id="_01-2" data-name="01" transform="translate(27.597 35.725)" font-size="24" font-family="Poppins-Bold, Poppins" font-weight="700"><tspan x="-12.336" y="0">01</tspan></text>
            </g>
          </g>
          <text id="Complétez_le_formula" data-name="Complétez le formula" transform="translate(0 188.436)" font-size="16" font-family="Poppins-SemiBold, Poppins" font-weight="600"><tspan x="-78.6" y="17">Créer son compte / </tspan><tspan x="-52.72" y="37">se connecter</tspan></text>
        </g>
        <text id="Complétez_le_formula-2" data-name="Complétez le formula" transform="translate(496.527 1958.223)" font-size="16" font-family="Poppins-SemiBold, Poppins" font-weight="600"><tspan x="0" y="17">Remplir le formulaire </tspan><tspan x="0" y="37">d’immigration</tspan></text>
        <g id="arrow3-3" data-name="arrow3" transform="matrix(0.616, -0.788, 0.788, 0.616, 947.664, 1904.823)">
          <path id="Triangle-3" data-name="Triangle" d="M7.346,8.663a.932.932,0,0,0,1.318,0l7.072-7.072A.932.932,0,0,0,15.077,0H.934A.932.932,0,0,0,.275,1.591Z" transform="translate(194.813 160.733)" fill="#777"/>
          <path id="Path_2-3" data-name="Path 2" d="M0,0S98.205,12.259,111.378,123.664" transform="translate(91.361 49.058)" fill="none" stroke="#777" stroke-linecap="round" stroke-linejoin="round" stroke-miterlimit="10" stroke-width="2" stroke-dasharray="1 6"/>
        </g>
        <g id="Groupe_355" data-name="Groupe 355" transform="translate(151.793)">
          <g id="demande-de-visa" transform="translate(-18.276 -84.995)">
            <g id="Groupe_49-3" data-name="Groupe 49" transform="translate(742.549 1879.963)">
              <path id="Combined_Shape-3" data-name="Combined Shape" d="M37.3,107.191A30.712,30.712,0,0,1,10.038,67.649,30.7,30.7,0,0,1,39.382,15.514,62.069,62.069,0,0,1,103.47,4.887a43.088,43.088,0,0,1,52.01,66.976,30.712,30.712,0,0,1-36.155,38.4A61.994,61.994,0,0,1,37.3,107.191Z" transform="translate(0 0)" fill="#fff" opacity="0.5"/>
              <path id="Path-25" data-name="Path" d="M9.667,5.22H5.414V.387a.387.387,0,1,0-.773,0V5.22H.387a.387.387,0,0,0,0,.773H4.64v4.833a.387.387,0,1,0,.773,0V5.994H9.667a.387.387,0,0,0,0-.773Z" transform="translate(103.569 124.289)" fill="#fff"/>
            </g>
            <g id="Groupe_59" data-name="Groupe 59" transform="translate(764.89 1873.879)">
              <path id="Path-26" data-name="Path" d="M7.408,2.856S5.227,29.521,4.759,35.235A41.206,41.206,0,0,1,2.417,45.71a9.977,9.977,0,0,0-.937,3.809V73.8a1.406,1.406,0,0,0-1.405,1.9c.468,1.9.937,5.238.937,5.238H8.037a1.483,1.483,0,0,1,.937-1.9c1.405-.476,0-4.285,0-4.285l7.494-28.569L27.708,22.379s6.557,21.427,7.962,23.807c0,0,5.152,26.664,6.089,29.045s1.405,2.381.937,3.333a2.155,2.155,0,0,0,0,2.381c.468.476,9.367,0,9.367,0L49.721,47.138,45.506,6.666,23.961,0Z" transform="translate(6.126 78.094)" fill="#2f2e41"/>
              <path id="Path-27" data-name="Path" d="M11.525,4.478S9.269-4.16,5.659,2.559s-3.61,9.118-3.61,9.118S-3.818,20.8,4.3,19.835s6.318-5.279,6.318-5.279,3.159-1.92,3.159-3.359S11.525,4.478,11.525,4.478Z" transform="translate(0 150.063)" fill="#2f2e41"/>
              <path id="Path-28" data-name="Path" d="M2.256,4.478S4.513-4.16,8.123,2.559s3.61,9.118,3.61,9.118S17.6,20.8,9.477,19.835s-6.318-5.279-6.318-5.279S0,12.637,0,11.2,2.256,4.478,2.256,4.478Z" transform="translate(47.469 148.532)" fill="#2f2e41"/>
              <path id="Path-29" data-name="Path" d="M2.382,0S3.306,5.972.535,7.35s6,6.431,8.312,6.431,6.465-4.594,6.465-4.594S13,2.3,13.465.919Z" transform="translate(24.5 18.376)" fill="#a0616a"/>
              <circle id="Oval-4" data-name="Oval" cx="9.953" cy="9.953" r="9.953" transform="translate(22.969 3.063)" fill="#a0616a"/>
              <path id="Path-30" data-name="Path" d="M39.813,7.99,28.015.871S21.3,8.46,14.04,0L1.587,3.29,3.475,35.25S.643,47.94,1.587,50.29-.772,53.58.171,54.05s0,3.76,0,3.76,18.4,9.4,38.7,2.35l-1.888-6.11a4.916,4.916,0,0,0-.944-4.7,4.145,4.145,0,0,0-.472-5.17s.944-4.23-1.416-6.11l-.472-6.58,1.416-3.29Z" transform="translate(12.25 24.5)" fill="#575a89"/>
              <path id="Path-31" data-name="Path" d="M5.626,7.539s-1.237,2.49,3.711,1.494c0,0,1.855,1,1.855-.5,0,0,2.474,2.49,3.092,1s1.855.5,1.855.5l1.237-2.49,1.237,1.494h4.329S24.18-.926,9.337.07,1.8,16.844,1.8,16.844s.12-2.832,1.356-1.338S5.626,7.539,5.626,7.539Z" transform="translate(21.157 0)" fill="#2f2e41"/>
              <path id="Path-32" data-name="Path" d="M9.687,0,10.2,9.823S12.266,28.065,8.14,36.016v4.21S7.108,50.984,1.95,50.516,3.5,35.081,3.5,35.081L2.466,14.5,1.434,2.806Z" transform="translate(47.469 50.532)" fill="#a0616a"/>
              <path id="Path-33" data-name="Path" d="M4.1.784,8.638,0a24.03,24.03,0,0,1,6.384,12.4c1.366,7.744,1.821,9.2,1.821,9.2L5.918,24.5,0,12.4Z" transform="translate(42.875 32.157)" fill="#575a89"/>
              <g id="Groupe_61" data-name="Groupe 61" transform="translate(26.306 35.768)">
                <g id="Rectangle_17-3" data-name="Rectangle 17" fill="#fff" stroke="#e6e6e6" stroke-width="2">
                  <rect width="56.131" height="76.892" rx="2" stroke="none"/>
                  <rect x="1" y="1" width="54.131" height="74.892" rx="1" fill="none"/>
                </g>
                <g id="Groupe_56-2" data-name="Groupe 56" transform="translate(15.402 9.403)">
                  <path id="Icon_awesome-globe-africa" data-name="Icon awesome-globe-africa" d="M13.876.563A13.876,13.876,0,1,0,27.752,14.438,13.876,13.876,0,0,0,13.876.563ZM22.828,12.62v.388a.867.867,0,0,1-.479.775l-.861.431a.866.866,0,0,1-.869-.054L19.6,13.48a.868.868,0,0,0-.755-.1l-.148.049a.867.867,0,0,0-.447,1.3l.741,1.111a.867.867,0,0,0,.721.386h.459a.867.867,0,0,1,.867.867v.634a.868.868,0,0,1-.173.52l-1.049,1.4a.871.871,0,0,0-.158.36l-.241,1.277a.869.869,0,0,1-.266.479,8.93,8.93,0,0,0-1.4,1.632l-.729,1.094a1.553,1.553,0,0,1-2.681-.167,4.415,4.415,0,0,1-.466-1.975V20.677a.867.867,0,0,0-.867-.867H11.561A3.056,3.056,0,0,1,8.5,16.753v-.787a3.058,3.058,0,0,1,1.223-2.445l1.543-1.158a3.058,3.058,0,0,1,1.834-.612h.05a3.05,3.05,0,0,1,1.367.323l.824.412a.866.866,0,0,0,.662.047l2.647-.882a.867.867,0,0,0-.274-1.69h-.565a.867.867,0,0,1-.613-.254l-.387-.387a.867.867,0,0,0-.613-.254H11.162a.867.867,0,0,1-.867-.867V7.953a.868.868,0,0,1,.657-.842l.808-.2a.869.869,0,0,0,.511-.36l.452-.678a.867.867,0,0,1,.721-.386H14.8a.867.867,0,0,0,.867-.867V3.4a11.206,11.206,0,0,1,9.06,8.348H23.7A.867.867,0,0,0,22.828,12.62Z" transform="translate(0 -0.563)" fill="#ffcf2f"/>
                </g>
                <g id="Groupe_61-2" data-name="Groupe 61" transform="translate(5.133 6.89)">
                  <rect id="Rectangle_23" data-name="Rectangle 23" width="22" height="3" rx="1.5" transform="translate(11.671 35.124)" fill="#ccc"/>
                  <rect id="Rectangle_24" data-name="Rectangle 24" width="22" height="4" rx="2" transform="translate(11.67 42.124)" fill="#ccc"/>
                  <rect id="Rectangle_21" data-name="Rectangle 21" width="27.445" height="3.076" rx="1.538" transform="translate(0 63.82) rotate(-90)" fill="#ccc"/>
                  <rect id="Rectangle_22" data-name="Rectangle 22" width="33.064" height="3.076" rx="1.538" transform="translate(41.522 33.064) rotate(-90)" fill="#ccc"/>
                </g>
              </g>
              <path id="Path-34" data-name="Path" d="M1.564,11.585s-4.06,17.508.9,17.508S19.157,9.282,19.157,9.282,31.336,2.831,26.374.527,15.1,4.213,15.1,4.213L7.81,14.547,7.428,9.282Z" transform="translate(4.594 33.688)" fill="#a0616a"/>
              <path id="Path-35" data-name="Path" d="M12.25,2.89,9.31,0S3.43,3.372,2.94,6.744,0,20.715,0,20.715l9.065.723,2.94-4.336Z" transform="translate(4.594 27.563)" fill="#575a89"/>
            </g>
          </g>
          <g id="Groupe_55" data-name="Groupe 55" transform="translate(621.13 1912.834)">
            <text id="Complétez_le_formula-3" data-name="Complétez le formula" transform="translate(106.164 65.702)" font-size="14" font-family="Poppins-SemiBold, Poppins" font-weight="600"><tspan x="0" y="0">Demander un visa, </tspan><tspan x="0" y="18">si besoin et payer</tspan></text>
          </g>
          <g id="steps-3" data-name="steps" transform="translate(807.525 1885.182)">
            <g id="Oval-5" data-name="Oval" fill="#fff" stroke="#ffd019" stroke-miterlimit="10" stroke-width="1">
              <circle cx="28.385" cy="28.385" r="28.385" stroke="none"/>
              <circle cx="28.385" cy="28.385" r="27.885" fill="none"/>
            </g>
            <text id="_01-3" data-name="01" transform="translate(27.88 36.725)" font-size="25" font-family="Poppins-Bold, Poppins" font-weight="700"><tspan x="-15.712" y="0">03</tspan></text>
          </g>
        </g>
        <g id="step-5-travel-safe" transform="translate(1213.567 1787.52)">
          <path id="Combined_Shape_Copy_4" data-name="Combined Shape Copy 4" d="M40.123,115.613A33.132,33.132,0,0,1,10.792,72.94,33.115,33.115,0,0,1,42.425,16.712,66.962,66.962,0,0,1,111.362,5.2a46.484,46.484,0,0,1,55.921,72.384A33.132,33.132,0,0,1,128.583,119a66.879,66.879,0,0,1-88.461-3.387Z" fill="#fff" opacity="0.5"/>
          <g id="undraw_aircraft_fbvl" transform="translate(93.124 -59.671)">
            <path id="Path-36" data-name="Path" d="M88.846,16.352a24.857,24.857,0,0,1-4.836.92c-5.581.667-13.229.9-13.229.9S31.466,21.421,2,9.348c0,0-4.286-2.237-.31-5.247A12.96,12.96,0,0,1,3.635,2.92l.049-.048a10.318,10.318,0,0,1,1.46-1.12A10.249,10.249,0,0,1,12.386.132L89.776,12.592S92.6,14.97,88.846,16.352Z" transform="translate(0 24.763)" fill="#3f3d56"/>
            <path id="Path-37" data-name="Path" d="M0,11.512,16.471,0l7.26,1.237L16.623,13.411S.189,13.541,0,11.512Z" transform="translate(73.256 23.731)" fill="#3f3d56"/>
            <path id="Path-38" data-name="Path" d="M0,8.794,31.988,0l5.156,1.056L22.694,7.428l-4.516,4.953L0,8.794Z" transform="translate(33.017 19.604)" fill="#3f3d56"/>
            <path id="Path-39" data-name="Path" d="M84.606,13.147c-5.62.666-13.323.9-13.323.9S31.689,17.289,2.014,5.238c0,0-4.316-2.233-.312-5.238l.014.055s6.4,4.27,37,7.835Z" transform="translate(0 28.89)" fill="#ffd019"/>
            <path id="Path-40" data-name="Path" d="M.067,1.652,14.032,7.222l3.508-.38L9.187.709S-.916-1.4.067,1.652Z" transform="translate(78.415 39.208)" fill="#3f3d56"/>
            <path id="Path-41" data-name="Path" d="M2.746,3.1C2.164,3.107.83,1.934,0,1.144A9.143,9.143,0,0,1,1.235,0C1.9.617,3.094,1.614,3.756,1.575,4.711,1.528,3.623,3.076,2.746,3.1Z" transform="translate(5.159 26.826)" fill="#ffd019"/>
            <path id="Path-42" data-name="Path" d="M43.335,23.247l-9.447.484L7.326,6.191,2.395,2.934,0,1.352C4.493-2.365,22.826,2.761,22.826,2.761a1.565,1.565,0,0,1,.447,1.3,7.933,7.933,0,0,1-.694,2.589c-.044.1-.072.158-.072.158Z" transform="translate(29.922 38.176)" fill="#3f3d56"/>
            <path id="Path-43" data-name="Path" d="M11.966,3.6l-1.6,1.038.972-1.807a1.562,1.562,0,0,0-.968-.353H10.34a1.737,1.737,0,0,1-.332-.025L9.465,2.8,9.7,2.372a1.943,1.943,0,0,1-.949-.738l-.971.633L8.39,1.125A2.819,2.819,0,0,0,6.214,0,2.974,2.974,0,0,0,3.724,1.572a1.853,1.853,0,0,1-1.651.907H2.019C.9,2.479,0,3.772,0,5.367S.9,8.254,2.019,8.254a1.48,1.48,0,0,0,.7-.18,2.86,2.86,0,0,1,2.444-.049,2.5,2.5,0,0,0,2.078,0,2.858,2.858,0,0,1,2.422.047,1.492,1.492,0,0,0,.7.176c1.115,0,2.019-1.292,2.019-2.888A3.735,3.735,0,0,0,11.966,3.6Z" transform="translate(30.953 49.525)" fill="#f2f2f2"/>
            <path id="Path-44" data-name="Path" d="M9.286,3.74a3.405,3.405,0,0,0-1.8.177,2.89,2.89,0,0,1-2.157,0,3.308,3.308,0,0,0-2.538.045,1.71,1.71,0,0,1-.731.166A2.308,2.308,0,0,1,0,1.948a1.856,1.856,0,0,0,.514-.5A3.153,3.153,0,0,1,3.1,0,3.131,3.131,0,0,1,5.677,1.427a2.038,2.038,0,0,0,1.709.852h.027A2.1,2.1,0,0,1,9.286,3.74Z" transform="translate(29.922 53.653)" opacity="0.03"/>
            <path id="Path-45" data-name="Path" d="M11.966,3.6l-1.6,1.038.972-1.807a1.562,1.562,0,0,0-.968-.353H10.34a1.737,1.737,0,0,1-.332-.025L9.465,2.8,9.7,2.372a1.943,1.943,0,0,1-.949-.738l-.971.633L8.39,1.125A2.819,2.819,0,0,0,6.214,0,2.974,2.974,0,0,0,3.724,1.572a1.853,1.853,0,0,1-1.651.907H2.019C.9,2.479,0,3.772,0,5.367S.9,8.254,2.019,8.254a1.48,1.48,0,0,0,.7-.18,2.86,2.86,0,0,1,2.444-.049,2.5,2.5,0,0,0,2.078,0,2.858,2.858,0,0,1,2.422.047,1.492,1.492,0,0,0,.7.176c1.115,0,2.019-1.292,2.019-2.888A3.735,3.735,0,0,0,11.966,3.6Z" transform="translate(75.32 48.494)" fill="#f2f2f2"/>
            <path id="Path-46" data-name="Path" d="M9.286,3.74a3.405,3.405,0,0,0-1.8.177,2.89,2.89,0,0,1-2.157,0,3.308,3.308,0,0,0-2.538.045,1.71,1.71,0,0,1-.731.166A2.308,2.308,0,0,1,0,1.948a1.856,1.856,0,0,0,.514-.5A3.153,3.153,0,0,1,3.1,0,3.131,3.131,0,0,1,5.677,1.427a2.038,2.038,0,0,0,1.714.852h.027A2.1,2.1,0,0,1,9.286,3.74Z" transform="translate(75.32 52.621)" opacity="0.03"/>
            <path id="Path-47" data-name="Path" d="M11.966,3.6l-1.6,1.038.972-1.807a1.562,1.562,0,0,0-.968-.353H10.34a1.737,1.737,0,0,1-.332-.025L9.465,2.8,9.7,2.372a1.943,1.943,0,0,1-.949-.738l-.971.633L8.39,1.125A2.819,2.819,0,0,0,6.214,0,2.974,2.974,0,0,0,3.724,1.572a1.853,1.853,0,0,1-1.651.907H2.019C.9,2.479,0,3.772,0,5.367S.9,8.254,2.019,8.254a1.48,1.48,0,0,0,.7-.18,2.86,2.86,0,0,1,2.444-.049,2.5,2.5,0,0,0,2.078.005,2.858,2.858,0,0,1,2.422.047,1.492,1.492,0,0,0,.7.176c1.115,0,2.019-1.292,2.019-2.888A3.735,3.735,0,0,0,11.966,3.6Z" transform="translate(75.32 14.445)" fill="#f2f2f2"/>
            <path id="Path-48" data-name="Path" d="M9.286,3.74a3.405,3.405,0,0,0-1.8.177,2.89,2.89,0,0,1-2.157,0,3.308,3.308,0,0,0-2.538.045,1.71,1.71,0,0,1-.731.166A2.308,2.308,0,0,1,0,1.948a1.856,1.856,0,0,0,.514-.5A3.153,3.153,0,0,1,3.1,0,3.131,3.131,0,0,1,5.677,1.427a2.038,2.038,0,0,0,1.714.852h.027A2.1,2.1,0,0,1,9.286,3.74Z" transform="translate(75.32 18.572)" opacity="0.03"/>
            <path id="Path-49" data-name="Path" d="M5.98,1.794l-.8.519.486-.9a.778.778,0,0,0-.484-.178H5.168A.967.967,0,0,1,5,1.22L4.73,1.4l.116-.211A.971.971,0,0,1,4.371.815l-.485.317L4.2.563A1.409,1.409,0,0,0,3.107,0,1.477,1.477,0,0,0,1.865.786a.927.927,0,0,1-.828.454H1.01C.452,1.239,0,1.886,0,2.684S.452,4.127,1.01,4.127a.745.745,0,0,0,.352-.09,1.428,1.428,0,0,1,1.223-.024,1.249,1.249,0,0,0,1.035,0,1.429,1.429,0,0,1,1.212.024.755.755,0,0,0,.348.088c.558,0,1.01-.646,1.01-1.443A1.874,1.874,0,0,0,5.98,1.794Z" transform="translate(15.477 11.35)" fill="#f2f2f2"/>
            <path id="Path-50" data-name="Path" d="M4.127,1.872a1.346,1.346,0,0,0-.8.089,1.168,1.168,0,0,1-.477.1,1.151,1.151,0,0,1-.482-.106,1.322,1.322,0,0,0-1.128.023.684.684,0,0,1-.324.083C.46,2.064.079,1.593,0,.974A.908.908,0,0,0,.229.723,1.369,1.369,0,0,1,1.374,0,1.375,1.375,0,0,1,2.52.714a.876.876,0,0,0,.764.425H3.3A.966.966,0,0,1,4.127,1.872Z" transform="translate(15.477 14.445)" opacity="0.03"/>
            <path id="Path-51" data-name="Path" d="M5.98,1.794l-.8.519.486-.9a.778.778,0,0,0-.484-.178H5.168A.967.967,0,0,1,5,1.22L4.73,1.4l.116-.211A.971.971,0,0,1,4.371.815l-.485.317L4.2.563A1.409,1.409,0,0,0,3.107,0,1.477,1.477,0,0,0,1.865.786a.927.927,0,0,1-.828.454H1.01C.452,1.239,0,1.886,0,2.684S.452,4.127,1.01,4.127a.745.745,0,0,0,.352-.09,1.428,1.428,0,0,1,1.223-.024,1.249,1.249,0,0,0,1.035,0,1.429,1.429,0,0,1,1.212.024.755.755,0,0,0,.348.088c.558,0,1.01-.646,1.01-1.443a1.874,1.874,0,0,0-.21-.887Z" transform="translate(85.638 62.939)" fill="#f2f2f2"/>
            <path id="Path-52" data-name="Path" d="M4.127,1.872a1.346,1.346,0,0,0-.8.089,1.168,1.168,0,0,1-.477.1,1.151,1.151,0,0,1-.482-.106,1.322,1.322,0,0,0-1.128.023.684.684,0,0,1-.324.083C.46,2.064.079,1.593,0,.974A.908.908,0,0,0,.229.723,1.369,1.369,0,0,1,1.374,0,1.375,1.375,0,0,1,2.52.714a.876.876,0,0,0,.764.425H3.3A.966.966,0,0,1,4.127,1.872Z" transform="translate(86.67 65.002)" opacity="0.03"/>
            <path id="Path-53" data-name="Path" d="M5.98,1.794l-.8.519.486-.9a.778.778,0,0,0-.484-.178H5.168A.967.967,0,0,1,5,1.22L4.73,1.4l.116-.211A.971.971,0,0,1,4.371.815l-.485.317L4.2.563A1.409,1.409,0,0,0,3.107,0,1.477,1.477,0,0,0,1.865.786a.927.927,0,0,1-.828.454H1.01C.452,1.239,0,1.886,0,2.684S.452,4.127,1.01,4.127a.745.745,0,0,0,.352-.09,1.428,1.428,0,0,1,1.223-.024,1.249,1.249,0,0,0,1.035,0,1.429,1.429,0,0,1,1.212.024.755.755,0,0,0,.348.088c.558,0,1.01-.646,1.01-1.443a1.874,1.874,0,0,0-.21-.887Z" transform="translate(11.35 65.002)" fill="#f2f2f2"/>
            <path id="Path-54" data-name="Path" d="M4.127,1.872a1.346,1.346,0,0,0-.8.089,1.168,1.168,0,0,1-.477.1,1.151,1.151,0,0,1-.482-.106,1.322,1.322,0,0,0-1.128.023.684.684,0,0,1-.324.083C.46,2.064.079,1.593,0,.974A.908.908,0,0,0,.229.723,1.369,1.369,0,0,1,1.374,0,1.375,1.375,0,0,1,2.52.714a.876.876,0,0,0,.764.425H3.3A.966.966,0,0,1,4.127,1.872Z" transform="translate(12.381 67.066)" opacity="0.03"/>
            <path id="Path-55" data-name="Path" d="M11.966,3.6l-1.6,1.038.972-1.807a1.562,1.562,0,0,0-.968-.353H10.34a1.737,1.737,0,0,1-.332-.025L9.465,2.8,9.7,2.372a1.943,1.943,0,0,1-.949-.738l-.971.633L8.39,1.125A2.819,2.819,0,0,0,6.214,0,2.974,2.974,0,0,0,3.724,1.572a1.853,1.853,0,0,1-1.651.907H2.019C.9,2.479,0,3.772,0,5.367S.9,8.254,2.019,8.254a1.48,1.48,0,0,0,.7-.18,2.86,2.86,0,0,1,2.444-.049,2.5,2.5,0,0,0,2.078.005,2.858,2.858,0,0,1,2.422.047,1.492,1.492,0,0,0,.7.176c1.115,0,2.019-1.292,2.019-2.888A3.735,3.735,0,0,0,11.966,3.6Z" transform="translate(42.303 0)" fill="#f2f2f2"/>
            <path id="Path-56" data-name="Path" d="M9.286,3.74a3.405,3.405,0,0,0-1.8.177,2.89,2.89,0,0,1-2.157,0,3.308,3.308,0,0,0-2.538.045,1.71,1.71,0,0,1-.731.166A2.308,2.308,0,0,1,0,1.948a1.856,1.856,0,0,0,.514-.5A3.153,3.153,0,0,1,3.1,0,3.131,3.131,0,0,1,5.677,1.427a2.038,2.038,0,0,0,1.714.852h.027A2.1,2.1,0,0,1,9.286,3.74Z" transform="translate(43.335 4.127)" opacity="0.03"/>
            <path id="Path-57" data-name="Path" d="M5.98,1.794l-.8.519.486-.9a.778.778,0,0,0-.484-.178H5.168A.967.967,0,0,1,5,1.22L4.73,1.4l.116-.211A.971.971,0,0,1,4.371.815l-.485.317L4.2.563A1.409,1.409,0,0,0,3.107,0,1.477,1.477,0,0,0,1.865.786a.927.927,0,0,1-.828.454H1.01C.452,1.239,0,1.886,0,2.684S.452,4.127,1.01,4.127a.745.745,0,0,0,.352-.09,1.428,1.428,0,0,1,1.223-.024,1.249,1.249,0,0,0,1.035,0,1.429,1.429,0,0,1,1.212.024.755.755,0,0,0,.348.088c.558,0,1.01-.646,1.01-1.443A1.874,1.874,0,0,0,5.98,1.794Z" transform="translate(103.178 19.604)" fill="#f2f2f2"/>
            <path id="Path-58" data-name="Path" d="M4.127,1.872a1.349,1.349,0,0,0-.8.089,1.17,1.17,0,0,1-.478.1,1.153,1.153,0,0,1-.478-.106,1.325,1.325,0,0,0-1.129.023.686.686,0,0,1-.324.083C.461,2.064.079,1.593,0,.974A.909.909,0,0,0,.229.723,1.371,1.371,0,0,1,1.376,0,1.376,1.376,0,0,1,2.523.714a.877.877,0,0,0,.76.425h.012A.967.967,0,0,1,4.127,1.872Z" transform="translate(104.21 22.699)" opacity="0.03"/>
          </g>
          <g id="undraw_adventure_4hum" transform="translate(38.124 15.719)">
            <path id="Path-59" data-name="Path" d="M0,10.4,3,0l1.02.319S2.806,8.1.893,10.076Z" transform="translate(9.377 55.551)" fill="#2f2e41"/>
            <path id="Path-60" data-name="Path" d="M.8.634s.383,4.082-.51,5.229.574,3.38.574,3.38l2.679,3.189,3.954-1.786L8.069,7.33l-.383-2.3a4.07,4.07,0,0,1-.765-3.763C7.495-1.152.8.634.8.634Z" transform="translate(19.995 9.51)" fill="#ffb9b9"/>
            <path id="Path-61" data-name="Path" d="M.8.634s.383,4.082-.51,5.229.574,3.38.574,3.38l2.679,3.189,3.954-1.786L8.069,7.33l-.383-2.3a4.07,4.07,0,0,1-.765-3.763C7.495-1.152.8.634.8.634Z" transform="translate(19.995 9.51)" fill="#a0616a"/>
            <path id="Path-62" data-name="Path" d="M0,1.02V3.635l3.508.7L3.189,0,0,1.02Z" transform="translate(23.089 85.462)" fill="#a0616a"/>
            <path id="Path-63" data-name="Path" d="M.765.383,0,4.018,1.531,5.1,4.209,3.125,3.89,0,.765.383Z" transform="translate(32.846 85.079)" fill="#a0616a"/>
            <path id="Path-64" data-name="Path" d="M6.128,1.312A2.7,2.7,0,0,0,2.3.467s-.446,2.5-.893,2.694-2.934,3.826,0,4.145a7.09,7.09,0,0,0,4.4-.638s-.574.494.319.239.51-1.658.51-1.658Z" transform="translate(20.787 88.167)" fill="#2f2e41"/>
            <path id="Path-65" data-name="Path" d="M4.148.482s-1.977,1.4-2.3.765A.871.871,0,0,0,1.023.673S-.763,7.4.385,7.724a3.869,3.869,0,0,0,2.232-.115s1.531-1.072,1.531-.243,4.273.769,6.059.706.829-1.4.829-1.4l-2.36-2.3L6,.482S4.785-.6,4.148.482Z" transform="translate(31.505 87.467)" fill="#2f2e41"/>
            <path id="Path-66" data-name="Path" d="M0,.81l2.679,25.7S4.145,42.2,4.4,42.455s1.913,1.084,5.548,0L9.12,21.919,10.65,9.165l3.508,8.8s.829,23.66,1.4,23.66,4.082,1.148,4.911-.255.7-16.518.7-16.518S20.79,1,17.984.236,0,.81,0,.81Z" transform="translate(16.839 44.474)" fill="#2f2e41"/>
            <circle id="Oval-6" data-name="Oval" cx="4.4" cy="4.4" r="4.4" transform="translate(19.836 3.703)" fill="#a0616a"/>
            <path id="Path-67" data-name="Path" d="M11.738,6.275s-.446-2.742-.446-3.252-1.977-.829-1.977-.829S7.784.472,7.465.727,2.3,4.234,1.534,4.681A5.209,5.209,0,0,0,0,7.168c.064.128,4.018,8.418,4.018,8.418s1.722,5.1.51,7.78-2.742,7.972-.51,9.056,13.074,3.444,15.051,1.4,3.38-2.615,3.89-2.615-2.1-8.865-1.531-9.694-.255-5.995-.255-5.995L24.11,7.3S23.855,2.7,18.052,1.683L14.58,0Z" transform="translate(12.754 14.073)" fill="#575a89"/>
            <path id="Path-68" data-name="Path" d="M.831.128S.512,3.189.512,4.082s-1.531,6.122.7,6.76S3.254,3.89,3.254,3.89V0Z" transform="translate(11.735 46.304)" fill="#a0616a"/>
            <path id="Path-69" data-name="Path" d="M2.823,0a18.653,18.653,0,0,1,.191,3.571c-.191.638,1.849,6.186-.893,6.5S.08,3.444.08,3.444V0Z" transform="translate(36.21 43.562)" fill="#a0616a"/>
            <path id="Path-70" data-name="Path" d="M0,9.821,1.849,0h.574A3.863,3.863,0,0,1,3,3.7a46.585,46.585,0,0,0-1.4,6.122Z" transform="translate(11.992 55.105)" fill="#2f2e41"/>
            <path id="Path-71" data-name="Path" d="M2.316,0,1.36.765S.084,21.046.4,22.576s-1.148,3.7.128,3.89,2.806,1.02,3.508.51.829-2.36,1.084-2.806a55.818,55.818,0,0,0,.7-5.74s1.339-5.293.51-9.247S4.74,1.212,4.74,1.212Z" transform="translate(11.398 20.476)" fill="#575a89"/>
            <path id="Path-72" data-name="Path" d="M1.148,0,4.082,2.487,6.314,15.5s1.4,10.14.319,10.268-2.742-.191-3.444,0a1.493,1.493,0,0,1-1.275-.319s-.765-4.082-.765-4.145-.51-4.719-.51-4.719L0,11.352l.957-5.74Z" transform="translate(32.782 18.881)" fill="#575a89"/>
            <path id="Path-73" data-name="Path" d="M20.091,14.923s-.415,1.191-.986,2.812c-.265.754-.564,1.6-.872,2.466-.2.559-.4,1.124-.6,1.677-.316.883-.624,1.731-.892,2.46-.355.961-.642,1.714-.8,2.066-.7,1.594-13.52-.957-14.541-1.594S.13,22,0,18.941c0-.016,0-.032,0-.048a11.156,11.156,0,0,1,.4-2.618c.131-.54.29-1.119.466-1.72.236-.807.5-1.652.784-2.494,1.2-3.616,2.62-7.15,2.62-7.15a20.835,20.835,0,0,0,3.38-2.87C8.548.893,13.459,0,13.459,0c1.4.064,4.592,5.485,5.867,7.143S20.091,14.923,20.091,14.923Z" transform="translate(0 64.161)" fill="#3f3d56"/>
            <circle id="Oval-7" data-name="Oval" cx="0.574" cy="0.574" r="0.574" transform="translate(12.375 68.243)" fill="#2f2e41"/>
            <circle id="Oval-8" data-name="Oval" cx="0.319" cy="0.319" r="0.319" transform="translate(13.523 69.135)" fill="#2f2e41"/>
            <path id="Path-74" data-name="Path" d="M18.234,5.674c-.265.754-.564,1.6-.872,2.466L0,2.494C.236,1.687.5.842.784,0Z" transform="translate(0.871 76.222)" fill="#f2f2f2"/>
            <path id="Path-75" data-name="Path" d="M17.635,5.6c-.316.883-.624,1.731-.892,2.46L0,2.618A11.156,11.156,0,0,1,.406,0Z" transform="translate(0 80.436)" fill="#f2f2f2"/>
            <path id="Path-76" data-name="Path" d="M0,0A33,33,0,0,1,.51,10.587a16.66,16.66,0,0,0,1.913,9.63" transform="translate(12.949 68.944)" fill="none" stroke="#2f2e41" stroke-miterlimit="10" stroke-width="0.55"/>
            <path id="Path-77" data-name="Path" d="M4.911,0S2.423,9.056,2.36,10.331,1.275,20.727,0,21.683" transform="translate(8.931 69.391)" fill="none" stroke="#2f2e41" stroke-miterlimit="10" stroke-width="0.55"/>
            <path id="Path-78" data-name="Path" d="M4.644,11.156c.274.116.836-2,.584-2.429-.374-.631-.352-.626-.6-1.044a1.181,1.181,0,0,1,.018-1.356c.322-.367,1.066-.319,1.212.142-.094-.875.8-1.578,1.679-1.775s1.814-.075,2.7-.251c1.03-.2,2.1-1.042,1.691-2.142a1.542,1.542,0,0,0-.311-.5A3.97,3.97,0,0,0,9.83.851,12.15,12.15,0,0,0,5.665,0,6.037,6.037,0,0,0,.319,3.8a5.213,5.213,0,0,0-.228.821,5.483,5.483,0,0,0,3.521,6.048Z" transform="translate(14.346 2.704) rotate(-13)" fill="#2f2e41"/>
          </g>
          <g id="humaaans_standing-23" data-name="humaaans/standing-23" transform="translate(4.648 -8.081)">
            <g id="humaaan-8" transform="translate(56.5 32.6)">
              <g id="Head_Front_Curly" data-name="Head/Front/Curly" transform="translate(19.04 0)">
                <g id="Head" transform="translate(5.058 3.583)">
                  <path id="Tracé_457" data-name="Tracé 457" d="M1.741,7.268a5.709,5.709,0,0,1-1.518-4.1C.539-1.343,6.817-.351,8.038,1.925s1.076,8.05-.5,8.457A5.581,5.581,0,0,1,4.2,9.324l.857,6.06H0Z" transform="translate(0 0)" fill="#b28b67" fill-rule="evenodd"/>
                </g>
                <path id="hair" d="M46.623,16.952a1.094,1.094,0,0,0-.766-.777,1.01,1.01,0,0,0-.282-.028c-.034,0-.043.011-.059-.013a.314.314,0,0,1-.017-.081,1.52,1.52,0,0,0-.057-.19,1.548,1.548,0,0,0-.374-.556,1.882,1.882,0,0,0-1.13-.535,1.648,1.648,0,0,0-.679.093,2.693,2.693,0,0,0-.33.141c-.032.016-.137.1-.169.09s-.107-.094-.136-.117a2,2,0,0,0-1.248-.38,2.285,2.285,0,0,0-1.41.336,2.821,2.821,0,0,0-.254.211c-.042.039-.084.08-.123.123q-.036.039-.069.079c-.038.046-.032.061-.084.029a1.048,1.048,0,0,0-.673-.151,1.507,1.507,0,0,0-.406.115c-.044.019-.146.094-.193.095s-.147-.069-.2-.087a1.6,1.6,0,0,0-.812-.075,2.1,2.1,0,0,0-.8.313,1.07,1.07,0,0,0-.3.268c-.035.048-.066.1-.105.143-.023.026-.069.053-.081.086a1.748,1.748,0,0,0-.337-.149.831.831,0,0,0-.475.018,1.888,1.888,0,0,0-.749.532,2.126,2.126,0,0,0-.277.372q-.057.1-.1.2a.732.732,0,0,1-.046.1c-.026.038-.043.038-.09.055a1.46,1.46,0,0,0-.622.416,1.433,1.433,0,0,0-.322.683.348.348,0,0,1-.013.084c-.012.011-.06.006-.078.008a1.64,1.64,0,0,0-.187.033,1.543,1.543,0,0,0-.329.118,1.717,1.717,0,0,0-.842,1.005,2.039,2.039,0,0,0,.032,1.4,1.364,1.364,0,0,0,.1.2c.025.04.033.04.017.082s-.051.092-.072.137a1.97,1.97,0,0,0-.149.467,2.189,2.189,0,0,0-.026.807,1.165,1.165,0,0,0,.125.354,1.017,1.017,0,0,0,.109.158c.021.026.044.05.068.073a.455.455,0,0,1,.043.04c.028.036.034.006.02.06a2.394,2.394,0,0,1-.095.221c-.029.075-.056.151-.08.227a3.354,3.354,0,0,0-.116.474,1.487,1.487,0,0,0,.1.92.92.92,0,0,0,.26.31.967.967,0,0,0,.171.1c.031.015.071.021.085.051s-.007.1-.013.132a2.205,2.205,0,0,0,.026.95,1.313,1.313,0,0,0,.52.7,1.619,1.619,0,0,0,1.618.046,1.7,1.7,0,0,0,.361-.248,1.192,1.192,0,0,0,1.253.255,1.8,1.8,0,0,0,1.143-.944.761.761,0,0,0,1.21-.159,1.008,1.008,0,0,0,.1-.332c.008-.06,0-.121.009-.181a.938.938,0,0,1,.088-.225,1.241,1.241,0,0,0,.094-.448,2.274,2.274,0,0,0-.017-.24.826.826,0,0,1,.025-.211.967.967,0,0,1-.409-.051.808.808,0,0,1-.316-.222,1.845,1.845,0,0,1-.4-.744,1.32,1.32,0,0,1,.486-1.619,3.053,3.053,0,0,1,1.432-.076c.346.078.738.841.757.913.012.044.006.1.047.129.09.065.237-.048.3-.1a1.2,1.2,0,0,0,.266-.354,4.375,4.375,0,0,0,.365-.894c.067-.238.11-.484.2-.716a1.1,1.1,0,0,1,.441-.568,3.88,3.88,0,0,1,.758-.307,1.882,1.882,0,0,0,.7-.385.97.97,0,0,0,.12-.134c.028-.038.055-.112.1-.136.065-.038.16.061.217.1a2.506,2.506,0,0,1,.7.692,4.308,4.308,0,0,1,.463.825,2.384,2.384,0,0,0,.312.688,1.314,1.314,0,0,0,.784.059.991.991,0,0,0,.428-.37.574.574,0,0,0,.049-.377c-.015-.076-.046-.147-.062-.222a.692.692,0,0,0-.058-.179.442.442,0,0,0-.276-.22,1.3,1.3,0,0,0,.3-.4,1.739,1.739,0,0,0,.154-.526.639.639,0,0,0-.085-.41,1.081,1.081,0,0,0-.35-.291,2.279,2.279,0,0,0,.487-.531A1.657,1.657,0,0,0,46.623,16.952Z" transform="translate(-31.287 -14.6)" fill="#191847" fill-rule="evenodd"/>
              </g>
              <g id="Bottom_Standing_Skinny-Jeans-Walk" data-name="Bottom/Standing/Skinny-Jeans-Walk" transform="translate(0 36.405)">
                <path id="Leg" d="M133.491,0l10.133,26.811,7.1,19.761h4.05L145.013,0Z" transform="translate(-111.063)" fill="#1f28cf" fill-rule="evenodd"/>
                <path id="Leg-2" data-name="Leg" d="M56.924,0c-.11,9.2-.031,21.585-.287,22.159q-.257.573-15.964,13.068l2.087,3.549q18.648-12.026,19.6-13.628C63.316,23.545,68.105,8.8,70.6,0Z" transform="translate(-37.001)" fill="#2b44ff" fill-rule="evenodd"/>
                <g id="Accessories_Shoe_Flat-Pointy" data-name="Accessories/Shoe/Flat-Pointy" transform="matrix(0.643, 0.766, -0.766, 0.643, 3.39, 34.77)">
                  <path id="Shoe" d="M0,4.425.211,0H4.636a26.106,26.106,0,0,0,8.219,3.583v.843H4.847L2.107,4v.421Z" transform="translate(0 0)" fill="#191847" fill-rule="evenodd"/>
                </g>
                <g id="Accessories_Shoe_Flat-Pointy-2" data-name="Accessories/Shoe/Flat-Pointy" transform="translate(39.287 45.94)">
                  <path id="Shoe-2" data-name="Shoe" d="M0,24.24l.211-4.425H4.636A26.106,26.106,0,0,0,12.855,23.4v.843H4.847l-2.74-.421v.421Z" transform="translate(0 -19.815)" fill="#191847" fill-rule="evenodd"/>
                </g>
              </g>
              <g id="Body_Hoodie" data-name="Body/Hoodie" transform="translate(7.285 13.567)">
                <path id="Skin" d="M68.633,96.167l6.722,4.936a18.1,18.1,0,0,1,4.57,1.836c.289.263.638.8-.56.7s-2.463-.135-2.628.274.56.9.226,1.449q-.334.551-3.158-2.766l-6.657-2.76Zm-25.81.17,4.4.017q-4.079,13.167-4.4,13.972c-.488,1.209.544,3.049.986,4.038-1.437.643-1.284-1.739-3.1-.9-1.655.77-2.914,2.165-4.826.985-.235-.145-.493-.691.13-1.118A19.932,19.932,0,0,0,40.1,109.8Q40.721,108.548,42.824,96.337Z" transform="translate(-35.628 -75.994)" fill="#b28b67" fill-rule="evenodd"/>
                <path id="Coat-Back" d="M0,.47,1.788,0C9.033,5.229,12.777,16.165,21.551,21.364L19.779,24C5.3,23.481.559,10.157,0,.47Z" transform="translate(19.751 1.396) rotate(5)" fill="#e87613" fill-rule="evenodd"/>
                <path id="Shirt" d="M93.861,24.024h16.124c.737,0,.6-1.064.491-1.6-1.229-6.2-6.028-12.874-6.028-21.694L99.8,0C95.95,6.187,94.62,13.8,93.861,24.024Z" transform="translate(-82.094 0.74)" fill="#dde3e9" fill-rule="evenodd"/>
                <path id="Coat-Front" d="M64.754,3.158a2.66,2.66,0,0,1-1.6-1.359c-1.7-3.067-1.086-4.756.731-5.311s3.437.588,6.331.588a2.911,2.911,0,0,1,.432.03l1.456.083q6.266,21.236,3.456,28.337H62.865a43.287,43.287,0,0,1-2.159,4.426H57.248Q56.76,14.167,64.754,3.158Z" transform="translate(-52.857 3.664)" fill="#ff9b21" fill-rule="evenodd"/>
                <path id="Shade" d="M87.918,104.809a19.42,19.42,0,0,0,1.946,7.271h-4.71Q86.47,109.012,87.918,104.809Z" transform="translate(-75.147 -82.89)" fill="rgba(0,0,0,0.1)" fill-rule="evenodd"/>
              </g>
            </g>
          </g>
        </g>
        <text id="Complétez_le_formula-4" data-name="Complétez le formula" transform="translate(1208.951 1915.912)" font-size="14" font-family="Poppins-SemiBold, Poppins" font-weight="600"><tspan x="30.099" y="15">Télécharger le </tspan><tspan x="4.234" y="33">bordereau de voyage </tspan><tspan x="9.12" y="51">contenant le visa, et </tspan><tspan x="20.306" y="69">voyager en toute </tspan><tspan x="52.072" y="87">sérénité</tspan></text>
        <g id="steps-4" data-name="steps" transform="translate(1189.567 1859.143)">
          <g id="Oval-9" data-name="Oval" fill="#fff" stroke="#ffd019" stroke-miterlimit="10" stroke-width="1">
            <circle cx="28.385" cy="28.385" r="28.385" stroke="none"/>
            <circle cx="28.385" cy="28.385" r="27.885" fill="none"/>
          </g>
          <text id="_01-4" data-name="01" transform="translate(27.88 36.725)" font-size="25" font-family="Poppins-Bold, Poppins" font-weight="700"><tspan x="-16.612" y="0">04</tspan></text>
        </g>
      </g>
    </g>
    <rect id="Rectangle_91" data-name="Rectangle 91" width="1440" height="418" transform="translate(0 1934.035)" fill="none"/>
  </g>
</svg>
